<svg width="132" height="132" viewBox="0 0 132 132" fill="none" xmlns="http://www.w3.org/2000/svg">
<g id="Group 22">
<g id="Ellipse 15" filter="url(#filter0_d_93_96)">
<circle cx="64" cy="61" r="50" fill="#89B1A9"/>
<circle cx="64" cy="61" r="50.5" stroke="white"/>
</g>
<path id="Vector" d="M60.0006 45C57.8788 45 55.8439 45.8429 54.3435 47.3431C52.8432 48.8434 52.0003 50.8783 52.0003 53C52.0003 55.1217 52.8432 57.1566 54.3435 58.6569C55.8439 60.1571 57.8788 61 60.0006 61C62.1224 61 64.1573 60.1571 65.6577 58.6569C67.158 57.1566 68.0009 55.1217 68.0009 53C68.0009 50.8783 67.158 48.8434 65.6577 47.3431C64.1573 45.8429 62.1224 45 60.0006 45ZM48.0002 53C48.0002 49.8174 49.2645 46.7652 51.515 44.5147C53.7655 42.2643 56.8179 41 60.0006 41C63.1833 41 66.2357 42.2643 68.4862 44.5147C70.7367 46.7652 72.0011 49.8174 72.0011 53C72.0011 56.1826 70.7367 59.2348 68.4862 61.4853C66.2357 63.7357 63.1833 65 60.0006 65C56.8179 65 53.7655 63.7357 51.515 61.4853C49.2645 59.2348 48.0002 56.1826 48.0002 53ZM83.3295 59.506C83.7255 59.8584 83.9654 60.3535 83.9965 60.8826C84.0277 61.4118 83.8475 61.9316 83.4955 62.328L78.1633 68.328C77.9757 68.5392 77.7454 68.7082 77.4877 68.8239C77.23 68.9396 76.9507 68.9995 76.6683 68.9995C76.3858 68.9995 76.1065 68.9396 75.8488 68.8239C75.5911 68.7082 75.3609 68.5392 75.1732 68.328L72.5071 65.328C72.1753 64.9289 72.0117 64.4165 72.0507 63.899C72.0898 63.3815 72.3284 62.8994 72.7163 62.5546C73.1042 62.2099 73.611 62.0293 74.1295 62.0512C74.6481 62.0731 75.1378 62.2957 75.4952 62.672L76.6673 63.99L80.5074 59.67C80.8601 59.2743 81.3554 59.0348 81.8845 59.004C82.4137 58.9733 82.9334 59.1538 83.3295 59.506ZM53.0003 73C50.4802 73 48.0002 75.426 48.0002 79C48.0002 79.5304 47.7894 80.0391 47.4143 80.4142C47.0393 80.7893 46.5305 81 46.0001 81C45.4696 81 44.9609 80.7893 44.5858 80.4142C44.2107 80.0391 44 79.5304 44 79C44 73.736 47.7861 69 53.0003 69H67.0009C72.2151 69 76.0012 73.736 76.0012 79C76.0012 79.5304 75.7905 80.0391 75.4154 80.4142C75.0403 80.7893 74.5316 81 74.0012 81C73.4707 81 72.962 80.7893 72.5869 80.4142C72.2118 80.0391 72.0011 79.5304 72.0011 79C72.0011 75.426 69.521 73 67.0009 73H53.0003Z" fill="white"/>
</g>
<defs>
<filter id="filter0_d_93_96" x="0" y="0" width="132" height="132" filterUnits="userSpaceOnUse" color-interpolation-filters="sRGB">
<feFlood flood-opacity="0" result="BackgroundImageFix"/>
<feColorMatrix in="SourceAlpha" type="matrix" values="0 0 0 0 0 0 0 0 0 0 0 0 0 0 0 0 0 0 127 0" result="hardAlpha"/>
<feMorphology radius="5" operator="dilate" in="SourceAlpha" result="effect1_dropShadow_93_96"/>
<feOffset dx="2" dy="5"/>
<feGaussianBlur stdDeviation="5"/>
<feComposite in2="hardAlpha" operator="out"/>
<feColorMatrix type="matrix" values="0 0 0 0 0.180392 0 0 0 0 0.294118 0 0 0 0 0.47451 0 0 0 0.2 0"/>
<feBlend mode="normal" in2="BackgroundImageFix" result="effect1_dropShadow_93_96"/>
<feBlend mode="normal" in="SourceGraphic" in2="effect1_dropShadow_93_96" result="shape"/>
</filter>
</defs>
</svg>
