<!-- icon666.com - MILLIONS vector ICONS FREE --><svg id="Capa_1" enable-background="new 0 0 512 512" viewBox="0 0 512 512" xmlns="http://www.w3.org/2000/svg" xmlns:xlink="http://www.w3.org/1999/xlink"><linearGradient id="SVGID_1_" gradientUnits="userSpaceOnUse" x1="256" x2="256" y1="512" y2="0"><stop offset="0" stop-color="#addcff"></stop><stop offset=".5028" stop-color="#eaf6ff"></stop><stop offset="1" stop-color="#eaf6ff"></stop></linearGradient><linearGradient id="SVGID_2_" gradientUnits="userSpaceOnUse" x1="255.794" x2="255.794" y1="406" y2="105"><stop offset="0" stop-color="#00c0ff"></stop><stop offset="1" stop-color="#5558ff"></stop></linearGradient><g><g><g><circle cx="256" cy="256" fill="url(#SVGID_1_)" r="256" style="fill: rgb(137, 177, 169);"></circle></g></g><g><g><path d="m326.618 282.059c-34.225 0-61.971 27.745-61.971 61.97s27.746 61.971 61.971 61.971 61.971-27.745 61.971-61.971c-.001-34.225-27.746-61.97-61.971-61.97zm23.204 55.711-21.372 21.372c-1.729 1.729-3.994 2.594-6.259 2.594s-4.53-.865-6.259-2.594l-12.519-12.519c-3.458-3.458-3.458-9.061 0-12.519s9.06-3.458 12.519 0l6.259 6.259 15.112-15.112c3.458-3.458 9.06-3.458 12.519 0s3.458 9.061 0 12.519zm-76.322-179.652h39.077l-47.93-47.93v39.077c0 4.889 3.964 8.853 8.853 8.853zm-70.823 70.823c14.645 0 26.559-11.913 26.559-26.559s-11.914-26.559-26.559-26.559c-14.646 0-26.559 11.913-26.559 26.559s11.913 26.559 26.559 26.559zm0-35.412c4.889 0 8.853 3.963 8.853 8.853 0 4.889-3.964 8.853-8.853 8.853s-8.853-3.964-8.853-8.853c-.001-4.89 3.964-8.853 8.853-8.853zm115.088 71.719v-89.424h-44.265c-14.646 0-26.559-11.913-26.559-26.559v-44.265h-115.088c-4.894 0-8.853 3.959-8.853 8.853v265.588c0 4.893 3.959 8.853 8.853 8.853h128.576c-8.502-12.672-13.488-27.891-13.488-44.265 0-40.904 31.095-74.312 70.824-78.781zm-115.088-107.13c24.406 0 44.265 19.859 44.265 44.265 0 20.333-13.86 37.331-32.574 42.498l14.41 43.23c1.548 4.643-.96 9.657-5.594 11.196-4.67 1.556-9.659-.983-11.196-5.594l-9.311-27.925-9.311 27.925c-1.539 4.643-6.51 7.167-11.196 5.594-4.634-1.539-7.141-6.553-5.594-11.196l14.41-43.23c-18.714-5.167-32.574-22.165-32.574-42.498 0-24.407 19.859-44.265 44.265-44.265zm35.411 177.059h-70.824c-4.893 0-8.853-3.96-8.853-8.853s3.96-8.853 8.853-8.853h70.824c4.893 0 8.853 3.959 8.853 8.853s-3.96 8.853-8.853 8.853z" fill="url(#SVGID_2_)" style="fill: rgb(255, 255, 255);"></path></g></g></g></svg>