<svg width="48" height="45" viewBox="0 0 48 45" fill="none" xmlns="http://www.w3.org/2000/svg">
<path id="Vector" d="M23.9354 0C17.433 0 16.6211 0.0281249 14.068 0.135C11.5189 0.2475 9.7836 0.624374 8.25772 1.18125C6.68396 1.755 5.34757 2.52562 4.01716 3.77624C2.68675 5.02687 1.86497 6.28124 1.25661 7.76249C0.664208 9.19686 0.261295 10.8281 0.143612 13.2244C0.0239354 15.6243 0 16.3875 0 22.5C0 28.6125 0.0299193 29.3756 0.143612 31.7756C0.26329 34.1699 0.664208 35.8031 1.25661 37.2374C1.86696 38.7149 2.68675 39.9731 4.01716 41.2237C5.34757 42.4724 6.68197 43.2468 8.25772 43.8187C9.78559 44.3737 11.5209 44.7543 14.068 44.8649C16.6211 44.9774 17.433 44.9999 23.9354 44.9999C30.4379 44.9999 31.2497 44.9718 33.8028 44.8649C36.3499 44.7524 38.0872 44.3737 39.6131 43.8187C41.1849 43.2449 42.5233 42.4724 43.8537 41.2237C45.1821 39.9731 46.0059 38.7206 46.6142 37.2374C47.2046 35.8031 47.6095 34.1699 47.7272 31.7756C47.8469 29.3756 47.8708 28.6125 47.8708 22.5C47.8708 16.3875 47.8409 15.6243 47.7272 13.2244C47.6075 10.83 47.2046 9.19498 46.6142 7.76249C46.0039 6.28311 45.1821 5.02687 43.8537 3.77624C42.5233 2.52562 41.1908 1.75312 39.6131 1.18125C38.0872 0.624374 36.3499 0.245625 33.8028 0.135C31.2497 0.0225 30.4379 0 23.9354 0ZM23.9354 4.04999C30.3242 4.04999 31.0861 4.07999 33.6093 4.18312C35.943 4.28624 37.2096 4.64999 38.0513 4.96124C39.1723 5.36812 39.9662 5.85562 40.8079 6.64124C41.6436 7.42874 42.1622 8.17686 42.5951 9.23061C42.9222 10.0219 43.3131 11.2125 43.4188 13.4062C43.5325 15.78 43.5585 16.4925 43.5585 22.5C43.5585 28.5075 43.5285 29.2218 43.4109 31.5937C43.2892 33.7874 42.9002 34.9781 42.5711 35.7693C42.1243 36.8231 41.6157 37.5693 40.778 38.3606C39.9422 39.1462 39.1344 39.6337 38.0254 40.0406C37.1876 40.3481 35.9011 40.7156 33.5674 40.8149C31.0263 40.9218 30.2783 40.9462 23.8756 40.9462C17.4709 40.9462 16.7229 40.9181 14.1837 40.8074C11.848 40.6931 10.5615 40.3274 9.72376 40.0181C8.58882 39.5981 7.80893 39.1199 6.97318 38.3324C6.13345 37.5468 5.5969 36.7874 5.17803 35.7449C4.84892 34.9574 4.46196 33.7481 4.34029 31.5543C4.25053 29.1918 4.21862 28.4625 4.21862 22.4718C4.21862 16.4793 4.25053 15.7481 4.34029 13.3575C4.46196 11.1637 4.84892 9.95623 5.17803 9.16873C5.5969 8.09999 6.13345 7.36874 6.97318 6.57936C7.80893 5.79374 8.58882 5.28749 9.72376 4.89562C10.5615 4.58437 11.8201 4.21874 14.1538 4.10624C16.6969 4.02187 17.4449 3.99374 23.8457 3.99374L23.9354 4.04999ZM23.9354 10.9462C17.1437 10.9462 11.6446 16.1212 11.6446 22.5C11.6446 28.8843 17.1497 34.0537 23.9354 34.0537C30.7271 34.0537 36.2262 28.8787 36.2262 22.5C36.2262 16.1156 30.7211 10.9462 23.9354 10.9462ZM23.9354 29.9999C19.5273 29.9999 15.9569 26.6437 15.9569 22.5C15.9569 18.3562 19.5273 15 23.9354 15C28.3435 15 31.9139 18.3562 31.9139 22.5C31.9139 26.6437 28.3435 29.9999 23.9354 29.9999ZM39.5852 10.4906C39.5852 11.9812 38.2967 13.1906 36.7129 13.1906C35.1272 13.1906 33.8407 11.9794 33.8407 10.4906C33.8407 9.00186 35.1292 7.79249 36.7129 7.79249C38.2947 7.79061 39.5852 9.00186 39.5852 10.4906Z" fill="#E4405F"/>
</svg>
