<svg width="132" height="132" viewBox="0 0 132 132" fill="none" xmlns="http://www.w3.org/2000/svg">
<g id="Group 23">
<g id="Ellipse 16" filter="url(#filter0_d_93_93)">
<circle cx="64" cy="61" r="50" fill="#89B1A9"/>
<circle cx="64" cy="61" r="50.5" stroke="white"/>
</g>
<g id="Vector">
<mask id="path-3-inside-1_93_93" fill="white">
<path d="M44 47.4445C44 46.2657 44.4214 45.1353 45.1716 44.3018C45.9217 43.4683 46.9391 43 48 43H80C81.0609 43 82.0783 43.4683 82.8284 44.3018C83.5786 45.1353 84 46.2657 84 47.4445V71.8892C84 73.068 83.5786 74.1985 82.8284 75.032C82.0783 75.8655 81.0609 76.3337 80 76.3337H70.828L65.414 82.3494C65.0389 82.766 64.5303 83 64 83C63.4697 83 62.9611 82.766 62.586 82.3494L57.172 76.3337H48C46.9391 76.3337 45.9217 75.8655 45.1716 75.032C44.4214 74.1985 44 73.068 44 71.8892V47.4445ZM80 47.4445H48V71.8892H58C58.5304 71.8894 59.039 72.1236 59.414 72.5403L64 77.636L68.586 72.5403C68.961 72.1236 69.4696 71.8894 70 71.8892H80V47.4445ZM52 55.2224C52 54.633 52.2107 54.0678 52.5858 53.651C52.9609 53.2342 53.4696 53.0001 54 53.0001H74C74.5304 53.0001 75.0391 53.2342 75.4142 53.651C75.7893 54.0678 76 54.633 76 55.2224C76 55.8117 75.7893 56.377 75.4142 56.7937C75.0391 57.2105 74.5304 57.4446 74 57.4446H54C53.4696 57.4446 52.9609 57.2105 52.5858 56.7937C52.2107 56.377 52 55.8117 52 55.2224ZM52 64.1114C52 63.522 52.2107 62.9567 52.5858 62.54C52.9609 62.1232 53.4696 61.8891 54 61.8891H66C66.5304 61.8891 67.0391 62.1232 67.4142 62.54C67.7893 62.9567 68 63.522 68 64.1114C68 64.7007 67.7893 65.266 67.4142 65.6827C67.0391 66.0995 66.5304 66.3336 66 66.3336H54C53.4696 66.3336 52.9609 66.0995 52.5858 65.6827C52.2107 65.266 52 64.7007 52 64.1114Z"/>
</mask>
<path d="M44 47.4445C44 46.2657 44.4214 45.1353 45.1716 44.3018C45.9217 43.4683 46.9391 43 48 43H80C81.0609 43 82.0783 43.4683 82.8284 44.3018C83.5786 45.1353 84 46.2657 84 47.4445V71.8892C84 73.068 83.5786 74.1985 82.8284 75.032C82.0783 75.8655 81.0609 76.3337 80 76.3337H70.828L65.414 82.3494C65.0389 82.766 64.5303 83 64 83C63.4697 83 62.9611 82.766 62.586 82.3494L57.172 76.3337H48C46.9391 76.3337 45.9217 75.8655 45.1716 75.032C44.4214 74.1985 44 73.068 44 71.8892V47.4445ZM80 47.4445H48V71.8892H58C58.5304 71.8894 59.039 72.1236 59.414 72.5403L64 77.636L68.586 72.5403C68.961 72.1236 69.4696 71.8894 70 71.8892H80V47.4445ZM52 55.2224C52 54.633 52.2107 54.0678 52.5858 53.651C52.9609 53.2342 53.4696 53.0001 54 53.0001H74C74.5304 53.0001 75.0391 53.2342 75.4142 53.651C75.7893 54.0678 76 54.633 76 55.2224C76 55.8117 75.7893 56.377 75.4142 56.7937C75.0391 57.2105 74.5304 57.4446 74 57.4446H54C53.4696 57.4446 52.9609 57.2105 52.5858 56.7937C52.2107 56.377 52 55.8117 52 55.2224ZM52 64.1114C52 63.522 52.2107 62.9567 52.5858 62.54C52.9609 62.1232 53.4696 61.8891 54 61.8891H66C66.5304 61.8891 67.0391 62.1232 67.4142 62.54C67.7893 62.9567 68 63.522 68 64.1114C68 64.7007 67.7893 65.266 67.4142 65.6827C67.0391 66.0995 66.5304 66.3336 66 66.3336H54C53.4696 66.3336 52.9609 66.0995 52.5858 65.6827C52.2107 65.266 52 64.7007 52 64.1114Z" fill="white"/>
<path d="M48 43V36.1633V43ZM80 43V36.1633V43ZM70.828 76.3337V69.497H67.7831L65.7463 71.7602L70.828 76.3337ZM65.414 82.3494L70.495 86.9236L70.4957 86.9229L65.414 82.3494ZM62.586 82.3494L57.5043 86.9229L57.505 86.9236L62.586 82.3494ZM57.172 76.3337L62.2537 71.7602L60.2169 69.497H57.172V76.3337ZM44 71.8892H37.1633H44ZM80 47.4445H86.8367V40.6078H80V47.4445ZM48 47.4445V40.6078H41.1633V47.4445H48ZM48 71.8892H41.1633V78.726H48V71.8892ZM58 71.8892L58.0016 65.0525H58V71.8892ZM59.414 72.5403L54.3316 77.1131L54.3323 77.1139L59.414 72.5403ZM64 77.636L58.9183 82.2095L64 87.8559L69.0817 82.2095L64 77.636ZM68.586 72.5403L73.6677 77.1139L73.6684 77.1131L68.586 72.5403ZM70 71.8892V65.0525H69.9984L70 71.8892ZM80 71.8892V78.726H86.8367V71.8892H80ZM50.8367 47.4445C50.8367 47.86 50.6948 48.3848 50.2533 48.8753L40.0898 39.7283C38.1481 41.8858 37.1633 44.6714 37.1633 47.4445H50.8367ZM50.2533 48.8753C49.7905 49.3895 48.9988 49.8367 48 49.8367V36.1633C44.8795 36.1633 42.053 37.547 40.0898 39.7283L50.2533 48.8753ZM48 49.8367H80V36.1633H48V49.8367ZM80 49.8367C79.0012 49.8367 78.2095 49.3895 77.7467 48.8753L87.9102 39.7283C85.947 37.547 83.1205 36.1633 80 36.1633V49.8367ZM77.7467 48.8753C77.3052 48.3848 77.1633 47.86 77.1633 47.4445H90.8367C90.8367 44.6714 89.8519 41.8858 87.9102 39.7283L77.7467 48.8753ZM77.1633 47.4445V71.8892H90.8367V47.4445H77.1633ZM77.1633 71.8892C77.1633 71.4737 77.3052 70.949 77.7467 70.4585L87.9102 79.6055C89.8519 77.448 90.8367 74.6623 90.8367 71.8892H77.1633ZM77.7467 70.4585C78.2095 69.9442 79.0012 69.497 80 69.497V83.1705C83.1205 83.1705 85.947 81.7867 87.9102 79.6055L77.7467 70.4585ZM80 69.497H70.828V83.1705H80V69.497ZM65.7463 71.7602L60.3323 77.7759L70.4957 86.9229L75.9097 80.9072L65.7463 71.7602ZM60.333 77.7751C61.1709 76.8443 62.4711 76.1633 64 76.1633V89.8367C66.5895 89.8367 68.907 88.6876 70.495 86.9236L60.333 77.7751ZM64 76.1633C65.5289 76.1633 66.8291 76.8443 67.667 77.7751L57.505 86.9236C59.093 88.6876 61.4105 89.8367 64 89.8367V76.1633ZM67.6677 77.7759L62.2537 71.7602L52.0903 80.9072L57.5043 86.9229L67.6677 77.7759ZM57.172 69.497H48V83.1705H57.172V69.497ZM48 69.497C48.9988 69.497 49.7905 69.9442 50.2533 70.4585L40.0898 79.6055C42.053 81.7867 44.8795 83.1705 48 83.1705V69.497ZM50.2533 70.4585C50.6948 70.949 50.8367 71.4737 50.8367 71.8892H37.1633C37.1633 74.6623 38.1481 77.448 40.0898 79.6055L50.2533 70.4585ZM50.8367 71.8892V47.4445H37.1633V71.8892H50.8367ZM80 40.6078H48V54.2812H80V40.6078ZM41.1633 47.4445V71.8892H54.8367V47.4445H41.1633ZM48 78.726H58V65.0525H48V78.726ZM57.9984 78.726C56.4693 78.7256 55.1692 78.0441 54.3316 77.1131L64.4964 67.9676C62.9088 66.203 60.5914 65.0531 58.0016 65.0525L57.9984 78.726ZM54.3323 77.1139L58.9183 82.2095L69.0817 73.0625L64.4957 67.9668L54.3323 77.1139ZM69.0817 82.2095L73.6677 77.1139L63.5043 67.9668L58.9183 73.0625L69.0817 82.2095ZM73.6684 77.1131C72.8308 78.0441 71.5307 78.7256 70.0016 78.726L69.9984 65.0525C67.4086 65.0531 65.0912 66.203 63.5036 67.9676L73.6684 77.1131ZM70 78.726H80V65.0525H70V78.726ZM86.8367 71.8892V47.4445H73.1633V71.8892H86.8367ZM58.8367 55.2224C58.8367 56.2273 58.484 57.3173 57.6675 58.2245L47.5041 49.0775C45.9374 50.8183 45.1633 53.0387 45.1633 55.2224H58.8367ZM57.6675 58.2245C56.8296 59.1555 55.5292 59.8369 54 59.8369V46.1634C51.4099 46.1634 49.0921 47.313 47.5041 49.0775L57.6675 58.2245ZM54 59.8369H74V46.1634H54V59.8369ZM74 59.8369C72.4708 59.8369 71.1704 59.1555 70.3325 58.2245L80.4959 49.0775C78.9079 47.313 76.59 46.1634 74 46.1634V59.8369ZM70.3325 58.2245C69.516 57.3172 69.1633 56.2273 69.1633 55.2224H82.8367C82.8367 53.0387 82.0626 50.8183 80.4959 49.0775L70.3325 58.2245ZM69.1633 55.2224C69.1633 54.2175 69.516 53.1275 70.3325 52.2202L80.4959 61.3672C82.0626 59.6265 82.8367 57.406 82.8367 55.2224H69.1633ZM70.3325 52.2202C71.1704 51.2892 72.4708 50.6079 74 50.6079V64.2814C76.59 64.2814 78.9079 63.1318 80.4959 61.3672L70.3325 52.2202ZM74 50.6079H54V64.2814H74V50.6079ZM54 50.6079C55.5292 50.6079 56.8296 51.2892 57.6675 52.2202L47.5041 61.3672C49.0921 63.1318 51.4099 64.2814 54 64.2814V50.6079ZM57.6675 52.2202C58.484 53.1275 58.8367 54.2174 58.8367 55.2224H45.1633C45.1633 57.406 45.9374 59.6265 47.5041 61.3672L57.6675 52.2202ZM58.8367 64.1114C58.8367 65.1163 58.484 66.2062 57.6675 67.1135L47.5041 57.9665C45.9374 59.7072 45.1633 61.9277 45.1633 64.1114H58.8367ZM57.6675 67.1135C56.8296 68.0445 55.5292 68.7258 54 68.7258V55.0524C51.4099 55.0524 49.0921 56.202 47.5041 57.9665L57.6675 67.1135ZM54 68.7258H66V55.0524H54V68.7258ZM66 68.7258C64.4708 68.7258 63.1704 68.0445 62.3325 67.1135L72.4959 57.9665C70.9079 56.202 68.5901 55.0524 66 55.0524V68.7258ZM62.3325 67.1135C61.516 66.2062 61.1633 65.1163 61.1633 64.1114H74.8367C74.8367 61.9277 74.0626 59.7072 72.4959 57.9665L62.3325 67.1135ZM61.1633 64.1114C61.1633 63.1064 61.516 62.0165 62.3325 61.1092L72.4959 70.2562C74.0626 68.5155 74.8367 66.295 74.8367 64.1114H61.1633ZM62.3325 61.1092C63.1704 60.1782 64.4708 59.4969 66 59.4969V73.1703C68.5901 73.1703 70.9079 72.0208 72.4959 70.2562L62.3325 61.1092ZM66 59.4969H54V73.1703H66V59.4969ZM54 59.4969C55.5292 59.4969 56.8296 60.1782 57.6675 61.1092L47.5041 70.2562C49.0921 72.0208 51.4099 73.1703 54 73.1703V59.4969ZM57.6675 61.1092C58.484 62.0165 58.8367 63.1064 58.8367 64.1114H45.1633C45.1633 66.295 45.9374 68.5155 47.5041 70.2562L57.6675 61.1092Z" fill="white" mask="url(#path-3-inside-1_93_93)"/>
</g>
</g>
<!-- <defs>
<filter id="filter0_d_93_93" x="0" y="0" width="132" height="132" filterUnits="userSpaceOnUse" color-interpolation-filters="sRGB">
<feFlood flood-opacity="0" result="BackgroundImageFix"/>
<feColorMatrix in="SourceAlpha" type="matrix" values="0 0 0 0 0 0 0 0 0 0 0 0 0 0 0 0 0 0 127 0" result="hardAlpha"/>
<feMorphology radius="5" operator="dilate" in="SourceAlpha" result="effect1_dropShadow_93_93"/>
<feOffset dx="2" dy="5"/>
<feGaussianBlur stdDeviation="5"/>
<feComposite in2="hardAlpha" operator="out"/>
<feColorMatrix type="matrix" values="0 0 0 0 0.180392 0 0 0 0 0.294118 0 0 0 0 0.47451 0 0 0 0.2 0"/>
<feBlend mode="normal" in2="BackgroundImageFix" result="effect1_dropShadow_93_93"/>
<feBlend mode="normal" in="SourceGraphic" in2="effect1_dropShadow_93_93" result="shape"/>
</filter>
</defs> -->
</svg>
