<svg width="104" height="102" viewBox="0 0 104 102" fill="none" xmlns="http://www.w3.org/2000/svg">
<g id="Group 20">
<path id="Ellipse 13" d="M51.7154 101.5C79.9942 101.5 102.931 78.897 102.931 51C102.931 23.1029 79.9942 0.5 51.7154 0.5C23.4367 0.5 0.5 23.1029 0.5 51C0.5 78.897 23.4367 101.5 51.7154 101.5Z" fill="#89B1A9" stroke="white"/>
<g id="Vector">
<mask id="path-2-inside-1_93_90" fill="white">
<path d="M52.2862 35C56.4651 35 59.8935 37.704 59.8935 41V47H44.6789V41C44.6789 37.704 48.1072 35 52.2862 35ZM64.965 47V41C64.965 35.496 59.2646 31 52.2862 31C45.3077 31 39.6073 35.496 39.6073 41V47H37.0715C35.7265 47 34.4365 47.4214 33.4854 48.1716C32.5343 48.9217 32 49.9391 32 51V67C32 68.0609 32.5343 69.0783 33.4854 69.8284C34.4365 70.5786 35.7265 71 37.0715 71H67.5008C68.8459 71 70.1358 70.5786 71.0869 69.8284C72.038 69.0783 72.5723 68.0609 72.5723 67V51C72.5723 49.9391 72.038 48.9217 71.0869 48.1716C70.1358 47.4214 68.8459 47 67.5008 47H64.965ZM37.0715 51H67.5008V67H37.0715V51Z"/>
</mask>
<path d="M52.2862 35C56.4651 35 59.8935 37.704 59.8935 41V47H44.6789V41C44.6789 37.704 48.1072 35 52.2862 35ZM64.965 47V41C64.965 35.496 59.2646 31 52.2862 31C45.3077 31 39.6073 35.496 39.6073 41V47H37.0715C35.7265 47 34.4365 47.4214 33.4854 48.1716C32.5343 48.9217 32 49.9391 32 51V67C32 68.0609 32.5343 69.0783 33.4854 69.8284C34.4365 70.5786 35.7265 71 37.0715 71H67.5008C68.8459 71 70.1358 70.5786 71.0869 69.8284C72.038 69.0783 72.5723 68.0609 72.5723 67V51C72.5723 49.9391 72.038 48.9217 71.0869 48.1716C70.1358 47.4214 68.8459 47 67.5008 47H64.965ZM37.0715 51H67.5008V67H37.0715V51Z" fill="white"/>
<path d="M59.8935 47V55.5459H68.4394V47H59.8935ZM44.6789 47H36.1329V55.5459H44.6789V47ZM64.965 47H56.4191V55.5459H64.965V47ZM39.6073 47V55.5459H48.1532V47H39.6073ZM32 51H23.4541H32ZM32 67H23.4541H32ZM37.0715 51V42.4541H28.5256V51H37.0715ZM67.5008 51H76.0467V42.4541H67.5008V51ZM67.5008 67V75.5459H76.0467V67H67.5008ZM37.0715 67H28.5256V75.5459H37.0715V67ZM52.2862 43.5459C52.5803 43.5459 52.5881 43.6503 52.3646 43.474C52.1372 43.2947 51.3476 42.4906 51.3476 41H68.4394C68.4394 31.2052 59.1833 26.4541 52.2862 26.4541V43.5459ZM51.3476 41V47H68.4394V41H51.3476ZM59.8935 38.4541H44.6789V55.5459H59.8935V38.4541ZM53.2248 47V41H36.1329V47H53.2248ZM53.2248 41C53.2248 42.4906 52.4351 43.2947 52.2077 43.474C51.9842 43.6503 51.9921 43.5459 52.2862 43.5459V26.4541C45.389 26.4541 36.1329 31.2052 36.1329 41H53.2248ZM73.511 47V41H56.4191V47H73.511ZM73.511 41C73.511 28.9972 61.9828 22.4541 52.2862 22.4541V39.5459C53.9877 39.5459 55.2615 40.1028 55.9502 40.646C56.6315 41.1833 56.4191 41.3767 56.4191 41H73.511ZM52.2862 22.4541C42.5895 22.4541 31.0614 28.9972 31.0614 41H48.1532C48.1532 41.3767 47.9409 41.1833 48.6221 40.646C49.3109 40.1028 50.5846 39.5459 52.2862 39.5459V22.4541ZM31.0614 41V47H48.1532V41H31.0614ZM39.6073 38.4541H37.0715V55.5459H39.6073V38.4541ZM37.0715 38.4541C34.0308 38.4541 30.8193 39.3903 28.1931 41.4616L38.7777 54.8816C38.396 55.1826 38.0453 55.3427 37.7846 55.4279C37.5208 55.5141 37.2829 55.5459 37.0715 55.5459V38.4541ZM28.1931 41.4616C25.517 43.5723 23.4541 46.9293 23.4541 51H40.5459C40.5459 52.9489 39.5516 54.2712 38.7777 54.8816L28.1931 41.4616ZM23.4541 51V67H40.5459V51H23.4541ZM23.4541 67C23.4541 71.0707 25.517 74.4277 28.1931 76.5384L38.7777 63.1184C39.5516 63.7288 40.5459 65.0511 40.5459 67H23.4541ZM28.1931 76.5384C30.8193 78.6097 34.0308 79.5459 37.0715 79.5459V62.4541C37.2829 62.4541 37.5208 62.4859 37.7846 62.5721C38.0453 62.6573 38.396 62.8174 38.7777 63.1184L28.1931 76.5384ZM37.0715 79.5459H67.5008V62.4541H37.0715V79.5459ZM67.5008 79.5459C70.5416 79.5459 73.7531 78.6097 76.3792 76.5384L65.7946 63.1184C66.1763 62.8174 66.5271 62.6573 66.7877 62.5721C67.0515 62.4859 67.2895 62.4541 67.5008 62.4541V79.5459ZM76.3792 76.5384C79.0553 74.4277 81.1183 71.0707 81.1183 67H64.0264C64.0264 65.0511 65.0207 63.7288 65.7946 63.1184L76.3792 76.5384ZM81.1183 67V51H64.0264V67H81.1183ZM81.1183 51C81.1183 46.9293 79.0553 43.5723 76.3792 41.4616L65.7946 54.8816C65.0207 54.2712 64.0264 52.9489 64.0264 51H81.1183ZM76.3792 41.4616C73.7531 39.3903 70.5416 38.4541 67.5008 38.4541V55.5459C67.2895 55.5459 67.0515 55.5141 66.7877 55.4279C66.5271 55.3427 66.1763 55.1826 65.7946 54.8816L76.3792 41.4616ZM67.5008 38.4541H64.965V55.5459H67.5008V38.4541ZM37.0715 59.5459H67.5008V42.4541H37.0715V59.5459ZM58.9549 51V67H76.0467V51H58.9549ZM67.5008 58.4541H37.0715V75.5459H67.5008V58.4541ZM45.6175 67V51H28.5256V67H45.6175Z" fill="white" mask="url(#path-2-inside-1_93_90)"/>
</g>
</g>
<defs>
<filter id="filter0_d_93_90" x="0" y="0" width="104" height="102" filterUnits="userSpaceOnUse" color-interpolation-filters="sRGB">
<feFlood flood-opacity="0" result="BackgroundImageFix"/>
<feColorMatrix in="SourceAlpha" type="matrix" values="0 0 0 0 0 0 0 0 0 0 0 0 0 0 0 0 0 0 127 0" result="hardAlpha"/>
<feMorphology radius="5" operator="dilate" in="SourceAlpha" result="effect1_dropShadow_93_90"/>
<feOffset dx="2" dy="5"/>
<feGaussianBlur stdDeviation="5"/>
<feComposite in2="hardAlpha" operator="out"/>
<feColorMatrix type="matrix" values="0 0 0 0 0.180392 0 0 0 0 0.294118 0 0 0 0 0.47451 0 0 0 0.2 0"/>
<feBlend mode="normal" in2="BackgroundImageFix" result="effect1_dropShadow_93_90"/>
<feBlend mode="normal" in="SourceGraphic" in2="effect1_dropShadow_93_90" result="shape"/>
</filter>
</defs>
</svg>
