<!-- icon666.com - MILLIONS vector ICONS FREE --><svg id="Capa_1" enable-background="new 0 0 368 368" viewBox="0 0 368 368" xmlns="http://www.w3.org/2000/svg"><g fill="#037ca9"><path d="m210.344 146.344-34.344 34.344-18.344-18.344c-3.178-3.069-8.243-2.981-11.312.197-2.994 3.1-2.994 8.015 0 11.115l24 24c3.124 3.123 8.188 3.123 11.312 0l40-40c3.069-3.178 2.982-8.243-.196-11.312-3.101-2.994-8.016-2.994-11.116 0z" fill="#037ca9" style="fill: rgb(137, 177, 169);"></path><path d="m184 0c-101.62 0-184 82.38-184 184s82.38 184 184 184 184-82.38 184-184c-.115-101.573-82.427-183.885-184-184zm96 183.424c.041 23.028-10.298 44.847-28.144 59.4l-62.792 51.368c-2.946 2.409-7.182 2.409-10.128 0l-62.792-51.368c-17.846-14.553-28.185-36.372-28.144-59.4v-63.424c.001-3.136 1.834-5.982 4.688-7.28l88-40c2.104-.957 4.52-.957 6.624 0l88 40c2.854 1.298 4.687 4.144 4.688 7.28z" fill="#037ca9" style="fill: rgb(137, 177, 169);"></path></g></svg>