<!-- icon666.com - MILLIONS vector ICONS FREE --><svg clip-rule="evenodd" fill-rule="evenodd" image-rendering="optimizeQuality" shape-rendering="geometricPrecision" text-rendering="geometricPrecision" viewBox="0 0 3000 3000" xmlns="http://www.w3.org/2000/svg" xmlns:xodm="http://www.corel.com/coreldraw/odm/2003"><g id="Layer_x0020_1"><circle cx="1500" cy="1500" fill="#6577b5" r="1500" style="fill: rgb(137, 177, 169);"></circle><path d="m2262.54 2353.18h-1525.08c-49.99 0-90.65-40.66-90.65-90.63v-1525.08c0-49.99 40.68-90.65 90.65-90.65h1525.08c49.99 0 90.65 40.67 90.65 90.65v1525.08c0 49.99-40.66 90.63-90.65 90.63zm-364.71-214.31c-5.51 0-11.04-1.71-15.72-5.13l-382.11-278.74-382.13 278.73c-20.73 15.1-49.04-5.43-41.06-29.81l147.02-449.56-383.17-277.27c-20.87-15.11-10.07-48.29 15.68-48.27l472.99.9 145.29-450.12c7.91-24.52 42.83-24.52 50.74 0l145.29 450.12 473.06-.9c25.7 0 36.46 33.19 15.63 48.27l-383.2 277.27 147.03 449.56c5.66 17.31-7.56 34.96-25.36 34.96z" fill="#fff"></path></g></svg>