<svg width="32" height="31" viewBox="0 0 32 31" fill="none" xmlns="http://www.w3.org/2000/svg">
<path id="Vector" d="M3.40333 3.02668H10.3653L12.609 8.50195L9.00392 10.8476C8.79163 10.9859 8.61758 11.1731 8.49721 11.3928C8.37685 11.6124 8.31389 11.8576 8.31393 12.1067C8.31858 12.249 8.31393 12.1082 8.31393 12.1082V12.14C8.31473 12.2077 8.31784 12.2753 8.32323 12.3428C8.33253 12.4669 8.34804 12.6349 8.3775 12.8422C8.43797 13.2508 8.55426 13.8138 8.78064 14.4766C9.23651 15.8084 10.1296 17.5321 11.8693 19.23C13.6091 20.928 15.3751 21.7997 16.7381 22.2446C17.4188 22.4655 17.994 22.5775 18.4158 22.6381C18.6538 22.6705 18.8935 22.6907 19.1337 22.6986L19.1538 22.7001H19.1662C19.1662 22.7001 19.3399 22.691 19.1678 22.7001C19.4557 22.7 19.7378 22.6216 19.9827 22.4738C20.2275 22.326 20.4253 22.1146 20.554 21.8632L21.5929 19.8354L28.4711 20.9552V27.4929C25.1979 27.9544 16.3566 28.4099 9.41017 21.6302C2.46369 14.8504 2.92886 6.21983 3.40333 3.02668ZM11.5282 12.8422L14.3301 11.0201C14.922 10.6348 15.3601 10.0625 15.571 9.3993C15.7819 8.73608 15.7527 8.02224 15.4883 7.37754L13.2447 1.90227C13.0144 1.34068 12.6171 0.859297 12.1038 0.520229C11.5906 0.181161 10.9851 -4.05476e-05 10.3653 6.80583e-09H3.3227C1.91325 6.80583e-09 0.587523 0.954918 0.356491 2.44707C-0.170697 5.83998 -0.885502 15.8613 7.21769 23.77C15.3209 31.6788 25.5886 30.9796 29.065 30.4666C30.5938 30.2396 31.5722 28.9472 31.5722 27.5716V20.9552C31.5723 20.2388 31.312 19.5455 30.8375 18.9987C30.3631 18.452 29.7053 18.0873 28.9812 17.9694L22.103 16.851C21.4488 16.7445 20.7768 16.8454 20.1858 17.139C19.5947 17.4326 19.1156 17.9035 18.8189 18.4824L18.2824 19.5312C18.0927 19.4856 17.9049 19.4326 17.7196 19.3723C16.7582 19.0605 15.4232 18.4189 14.0618 17.0902C12.7004 15.7614 12.043 14.4585 11.7236 13.5187C11.6473 13.2965 11.5827 13.0707 11.5298 12.8422H11.5282Z" fill="#4E2956"/>
</svg>
