<svg width="37" height="36" viewBox="0 0 37 36" fill="none" xmlns="http://www.w3.org/2000/svg">
<path id="Vector" d="M18.3713 4.9e-05C13.5118 0.0222594 8.85903 1.92848 5.43084 5.30173C2.00264 8.67497 0.0780721 13.2407 0.078125 18C0.078125 22.7739 2.01447 27.3523 5.4612 30.7279C8.90792 34.1036 13.5827 36 18.4571 36C23.3315 36 28.0063 34.1036 31.453 30.7279C34.8997 27.3523 36.836 22.7739 36.836 18C36.836 13.2261 34.8997 8.64777 31.453 5.27212C28.0063 1.89647 23.3315 4.9e-05 18.4571 4.9e-05C18.4285 -1.63333e-05 18.3999 -1.63333e-05 18.3713 4.9e-05ZM25.971 10.836C26.1242 10.833 26.4627 10.8705 26.6832 11.046C26.8298 11.1707 26.9232 11.3446 26.9451 11.5335C26.9696 11.673 27.0002 11.9925 26.9757 12.2415C26.7001 15.0885 25.5024 21.9945 24.8928 25.182C24.6355 26.532 24.1285 26.9835 23.6369 27.027C22.5709 27.1245 21.7607 26.337 20.7269 25.674C19.1095 24.6345 18.1952 23.988 16.6253 22.974C14.8104 21.804 15.9866 21.159 17.0205 20.109C17.2916 19.833 21.9935 15.6435 22.0854 15.264C22.0961 15.216 22.1068 15.039 21.9996 14.946C21.8924 14.853 21.7331 14.8845 21.6183 14.91C21.4559 14.946 18.8721 16.62 13.8669 19.9275C13.1318 20.4225 12.4686 20.6625 11.8728 20.6475C11.2173 20.6355 9.95529 20.286 9.01643 19.9875C7.86468 19.62 6.95033 19.4265 7.02997 18.804C7.07132 18.48 7.52773 18.1485 8.39767 17.8095C13.7551 15.5235 17.3268 14.016 19.1157 13.2885C24.2189 11.2095 25.2803 10.848 25.971 10.836Z" fill="#26A5E4"/>
</svg>
