<!-- icon666.com - MILLIONS vector ICONS FREE --><svg clip-rule="evenodd" fill-rule="evenodd" image-rendering="optimizeQuality" shape-rendering="geometricPrecision" text-rendering="geometricPrecision" viewBox="0 0 2.83333 2.83333" xmlns="http://www.w3.org/2000/svg" xmlns:xlink="http://www.w3.org/1999/xlink"><linearGradient id="id0" gradientUnits="userSpaceOnUse" x1="1.417" x2="1.417" y1="2.833" y2="0"><stop offset="0" stop-color="#262261"></stop><stop offset=".0117647" stop-color="#262261"></stop><stop offset=".0196078" stop-color="#262261"></stop><stop offset=".0313725" stop-color="#262261"></stop><stop offset=".0392157" stop-color="#262261"></stop><stop offset=".0509804" stop-color="#262261"></stop><stop offset=".0588235" stop-color="#292363"></stop><stop offset=".0705882" stop-color="#2c2365"></stop><stop offset=".0784314" stop-color="#2f2468"></stop><stop offset=".0901961" stop-color="#32246a"></stop><stop offset=".101961" stop-color="#35256c"></stop><stop offset=".109804" stop-color="#37256e"></stop><stop offset=".121569" stop-color="#3a2670"></stop><stop offset=".129412" stop-color="#3d2672"></stop><stop offset=".141176" stop-color="#3f2774"></stop><stop offset=".14902" stop-color="#422776"></stop><stop offset=".160784" stop-color="#442777"></stop><stop offset=".168627" stop-color="#462879"></stop><stop offset=".180392" stop-color="#48287a"></stop><stop offset=".188235" stop-color="#4a287c"></stop><stop offset=".2" stop-color="#4c297d"></stop><stop offset=".211765" stop-color="#4e297f"></stop><stop offset=".219608" stop-color="#502980"></stop><stop offset=".231373" stop-color="#512981"></stop><stop offset=".239216" stop-color="#532a83"></stop><stop offset=".25098" stop-color="#552a84"></stop><stop offset=".258824" stop-color="#562a85"></stop><stop offset=".270588" stop-color="#582a86"></stop><stop offset=".278431" stop-color="#592b87"></stop><stop offset=".290196" stop-color="#5a2b88"></stop><stop offset=".301961" stop-color="#5b2b89"></stop><stop offset=".309804" stop-color="#5c2b8a"></stop><stop offset=".321569" stop-color="#5e2b8a"></stop><stop offset=".329412" stop-color="#5f2c8b"></stop><stop offset=".341176" stop-color="#602c8c"></stop><stop offset=".34902" stop-color="#612c8d"></stop><stop offset=".360784" stop-color="#612c8d"></stop><stop offset=".368627" stop-color="#622c8e"></stop><stop offset=".380392" stop-color="#622c8e"></stop><stop offset=".388235" stop-color="#632c8e"></stop><stop offset=".4" stop-color="#632d8f"></stop><stop offset=".411765" stop-color="#632d8f"></stop><stop offset=".419608" stop-color="#642d8f"></stop><stop offset=".431373" stop-color="#642d8f"></stop><stop offset=".439216" stop-color="#652d90"></stop><stop offset=".45098" stop-color="#652d90"></stop><stop offset=".458824" stop-color="#672d90"></stop><stop offset=".470588" stop-color="#682d90"></stop><stop offset=".478431" stop-color="#6a2c90"></stop><stop offset=".490196" stop-color="#6b2c90"></stop><stop offset=".501961" stop-color="#6d2c90"></stop><stop offset=".509804" stop-color="#6e2c90"></stop><stop offset=".521569" stop-color="#702c90"></stop><stop offset=".529412" stop-color="#712b90"></stop><stop offset=".541176" stop-color="#722b90"></stop><stop offset=".54902" stop-color="#732b90"></stop><stop offset=".560784" stop-color="#752b90"></stop><stop offset=".568627" stop-color="#762b90"></stop><stop offset=".580392" stop-color="#772a8f"></stop><stop offset=".588235" stop-color="#782a8f"></stop><stop offset=".6" stop-color="#792a8f"></stop><stop offset=".611765" stop-color="#7a2a8f"></stop><stop offset=".619608" stop-color="#7c2a8f"></stop><stop offset=".631373" stop-color="#7d2a8f"></stop><stop offset=".639216" stop-color="#7e298f"></stop><stop offset=".65098" stop-color="#7f298f"></stop><stop offset=".658824" stop-color="#80298f"></stop><stop offset=".670588" stop-color="#81298f"></stop><stop offset=".678431" stop-color="#82298f"></stop><stop offset=".690196" stop-color="#82298f"></stop><stop offset=".701961" stop-color="#83298f"></stop><stop offset=".709804" stop-color="#84298f"></stop><stop offset=".721569" stop-color="#85298f"></stop><stop offset=".729412" stop-color="#85298f"></stop><stop offset=".741176" stop-color="#86288e"></stop><stop offset=".74902" stop-color="#87288e"></stop><stop offset=".760784" stop-color="#87288e"></stop><stop offset=".768627" stop-color="#88288e"></stop><stop offset=".780392" stop-color="#89288e"></stop><stop offset=".788235" stop-color="#89288e"></stop><stop offset=".8" stop-color="#8a288e"></stop><stop offset=".811765" stop-color="#8b288e"></stop><stop offset=".819608" stop-color="#8b288e"></stop><stop offset=".831373" stop-color="#8c288e"></stop><stop offset=".839216" stop-color="#8c288e"></stop><stop offset=".85098" stop-color="#8d288e"></stop><stop offset=".858824" stop-color="#8d288e"></stop><stop offset=".870588" stop-color="#8d288e"></stop><stop offset=".878431" stop-color="#8d288e"></stop><stop offset=".890196" stop-color="#8e288e"></stop><stop offset=".901961" stop-color="#8e288e"></stop><stop offset=".909804" stop-color="#8e278e"></stop><stop offset=".921569" stop-color="#8e278e"></stop><stop offset=".929412" stop-color="#8e278e"></stop><stop offset=".941176" stop-color="#8f278e"></stop><stop offset=".94902" stop-color="#8f278e"></stop><stop offset=".960784" stop-color="#8f278e"></stop><stop offset=".968627" stop-color="#8f278e"></stop><stop offset=".980392" stop-color="#90278e"></stop><stop offset=".988235" stop-color="#90278e"></stop><stop offset="1" stop-color="#90278e"></stop></linearGradient><g id="Layer_x0020_1"><path d="m2.83333 1.41667c0-.782406-.63426-1.41667-1.41667-1.41667-.782406 0-1.41667.63426-1.41667 1.41667 0 .782406.63426 1.41667 1.41667 1.41667.782406 0 1.41667-.63426 1.41667-1.41667z" fill="url(#id0)" style="fill: rgb(137, 177, 169);"></path><g id="_426051376"><g><g><path id="_259457056" d="m1.41667 2.18352c-.00277559 0-.00555512 0-.00694488-.00138583l-.152815-.048622-.152815-.0500118c-.00416929-.00138976-.00972441-.00416929-.0125-.00833465l-.186157-.259787c-.00277559-.00416929-.00416535-.00972441-.00416535-.0138898v-.319524c0-.00555512.00138583-.00972441.00416535-.0138898l.187547-.258398c.00277559-.00416929.00694488-.00694488.0125039-.00833465l.151425-.0500079.152815-.048626c.00416929-.00138583.00972441-.00138583.0152835 0l.30563.0986378c.00416535.00138976.00972441.00416929.0125.00833465l.187547.258398c.00277559.00416535.00416929.00972441.00416929.0138898v.31952c0 .00555906-.00138976.00972835-.00416929.0138937l-.187547.258394c-.00277559.00416929-.00694488.00694488-.0125.00833465l-.30563.0986378c-.00278346.00277165-.00556299.00277165-.00834252.00277165zm-.288957-.143087.144476.0472323.14448.0472323.290346-.0944646.179209-.245894v-.30424l-.179209-.24589-.290346-.0944685-.144476.0472323-.14448.0472362-.179209.24589v.30285l.179209.247283z" fill="#fff"></path></g><g><path id="_259456816" d="m1.41667 2.0307c-.213937 0-.387591-.17365-.387591-.38898 0-.213941.173654-.387594.387591-.387594.213941 0 .388984.173654.388984.387594-.00000394.213941-.175043.38898-.388984.38898zm0-.727949c-.186157 0-.338969.152811-.338969.338969 0 .187547.151425.340358.338969.340358.187547 0 .340358-.152815.340358-.340358 0-.186157-.152811-.338969-.340358-.338969z" fill="#fff"></path></g><g><path id="_259457152" d="m2.24742 1.90706h-.397319c-.0138898 0-.0250039-.0111142-.0250039-.0250039 0-.0138937.0111142-.0250079.0250039-.0250079h.355642l-.111138-.202827c-.00416929-.00694488-.00416929-.0152835 0-.0236181l.111138-.205602h-.355642c-.0138898 0-.0250039-.0111142-.0250039-.0250079 0-.0138898.0111142-.0250039.0250039-.0250039h.395929c.00833465 0 .0166693.00416929.0208386.0125.00416929.00833465.00416929.0166732 0 .0236181l-.123642.23061.123642.227831c.00416929.00694882.00416929.0166732 0 .0236181-.00416929.00972441-.0111181.0138937-.0194488.0138937zm-1.26419 0h-.395929c-.00833465 0-.0166732-.00416929-.0208425-.0125-.00416535-.00833465-.00416535-.0166732 0-.0236181l.125031-.229224-.125031-.227831c-.00416535-.00694488-.00416535-.0166693 0-.0236142.00416929-.00694882.0125039-.0125039.0208425-.0125039l.395929-.00000394c.0138898 0 .0250039.0111142.0250039.0250079 0 .0138898-.0111142.0250039-.0250039.0250039l-.355642.00000394.111138.204213c.00416929.00694488.00416929.0166732 0 .0236181l-.111138.205606h.355642c.0138898 0 .0250039.0111142.0250039.0250039 0 .0138898-.0125039.0208386-.0250039.0208386z" fill="#fff"></path></g><g><g><path id="_259457392" d="m1.30275 1.04991c-.00555906 0-.00972441-.00138976-.0138937-.00416929-.00833071-.00555512-.0125-.0166693-.00833071-.0277835l.0388976-.118087-.100024-.0722362c-.00833465-.00555906-.0125039-.0166732-.00833465-.0277874.00277559-.00972441.0125039-.0166693.0236181-.0166693h.120858l.0375079-.116693c.00277559-.00972835.0125-.0166732.0236142-.0166732.0111142 0 .0194488.00694488.0236181.0166732l.0388976.116693h.123642c.0111142 0 .0194449.00694882.0236142.0166732.00277953.00972441 0 .0208386-.00833465.0277835l-.100024.0722402.0375079.118083c.00277953.00972835 0 .0208425-.00833465.0277874-.00833465.00555512-.0194488.00555512-.0291732 0l-.100024-.0736299-.100024.0736299c-.00555906.00277559-.00972441.00416535-.0152795.00416535zm.113913-.131976c.00555906 0 .00972835.00138976.0138937.00416929l.0541772.0388976-.0208386-.0639016c-.00277559-.00972835 0-.0208425.00833465-.0277874l.0527913-.0375079-.0652913-.00000394c-.0111142 0-.0194488-.00694488-.0236181-.0166693l-.0208386-.0625157-.0180591.0639055c-.00277559.00972835-.0125.0166732-.0236142.0166732l-.0652953-.00000394.0527913.0375079c.00833465.00555906.0125039.0166732.00833465.0277874l-.0208386.0625157.0527913-.0389016c.00555512-.00277559.00972441-.00416535.0152795-.00416535z" fill="#fff"></path></g><g><g><path id="_259456840" d="m1.80565 1.10687c-.00555512 0-.00972441-.00138976-.0138898-.00416929-.00833465-.00555906-.0125039-.0166732-.00833465-.0277874l.0319488-.0958543-.0819606-.0597362c-.00833465-.00555906-.0125039-.0166732-.00833465-.0277874.00277559-.00972441.0125-.0166693.0236142-.0166693h.101413l.030563-.0958543c.00277559-.00972835.0125039-.0166732.0236181-.0166732.0111142 0 .0194488.00694488.0236142.0166732l.0319528.0958543h.100024c.0111142 0 .0194488.00694488.0236181.0166693.00277559.00972835 0 .0208425-.00833465.0277874l-.0819646.0597362.0319488.0958543c.00277953.00972835 0 .0208425-.00833465.0277874-.00833071.00694488-.0194449.00555512-.0291732 0l-.0819646-.0597362-.0819646.0597362c-.00833465.00277559-.0125.00416929-.0180591.00416929zm.0958583-.118087c.00555906 0 .00972835.00138976.0138937.00416929l.0347283.0250039-.0138898-.0416732c-.00277559-.00972835 0-.0208425.00833465-.0277874l.0361181-.0263937-.0416772-.00000394c-.0111142 0-.0194488-.00694488-.0236142-.0166693l-.0138937-.0416772-.0125.0416772c-.00277953.00972441-.0125039.0166693-.0236181.0166693h-.0444567l.0361181.0263937c.00833465.00555906.0125039.0166732.00833465.0277874l-.0138898.0416772.0347283-.0250079c.00555906-.00277559.0111142-.00416535.0152835-.00416535z" fill="#fff"></path></g><g><path id="_259456528" d="m1.02907 1.10687c-.00555512 0-.00972441-.00138976-.0138898-.00416929l-.0819646-.0597362-.0819646.0597362c-.00833465.00555512-.0194488.00555512-.0291732 0-.00833465-.00555906-.0125039-.0166732-.00833465-.0277874l.0319488-.0958543-.0819646-.0597362c-.00833465-.00555906-.0125-.0166732-.00833465-.0277874.00416929-.0111142.0125039-.0166693.0236181-.0166693h.101409l.0319528-.0958543c.00277559-.00972835.0125-.0166732.0236142-.0166732.0111142 0 .0194488.00694488.0236181.0166732l.030563.0958543h.101417c.0111142 0 .0194449.00694488.0236142.0166693.00277953.00972835 0 .0208425-.00833465.0277874l-.0819646.0597362.0319528.0958543c.00277559.00972835 0 .0208425-.00833465.0277874-.00972441.00277559-.0152835.00416929-.0194488.00416929zm-.0958583-.118087c.00555906 0 .00972441.00138976.0138898.00416929l.0347323.0250039-.0138898-.0416732c-.00277953-.00972835 0-.0208425.00833465-.0277874l.0361181-.0263937-.0444528-.00000394c-.0111142 0-.0194488-.00694488-.0236181-.0166693l-.0125039-.0416772-.0138898.0416772c-.00277559.00972441-.0125039.0166693-.0236181.0166693h-.0444567l.036122.0263937c.00833465.00555906.0125.0166732.00833465.0277874l-.0138937.0416772.0347323-.0250079c.00694488-.00277559.0125039-.00416535.0180591-.00416535z" fill="#fff"></path></g></g></g><g><path id="_259456456" d="m1.41667 1.93346c-.16115 0-.291736-.130587-.291736-.291736 0-.0138898.0111142-.0250039.0250079-.0250039.0138898 0 .0250039.0111142.0250039.0250039 0 .134756.108358.243114.243114.243114.0138898 0 .0236181.0111142.0236181.0250079 0 .0138898-.0111142.0236142-.0250079.0236142z" fill="#fff"></path></g></g></g></g></svg>