<svg width="37" height="34" viewBox="0 0 37 34" fill="none" xmlns="http://www.w3.org/2000/svg">
<path id="Vector" d="M26.8915 20.2247C26.4345 20.0152 24.1861 19.0055 23.7676 18.8649C23.3474 18.7257 23.0427 18.6567 22.7365 19.0758C22.4333 19.4935 21.5562 20.4342 21.29 20.7127C21.0237 20.9925 20.756 21.0263 20.2989 20.8181C19.8419 20.6072 18.3676 20.1671 16.621 18.7439C15.2621 17.6358 14.3434 16.2675 14.0772 15.8485C13.811 15.4308 14.0495 15.2044 14.2772 14.9963C14.4835 14.8093 14.7358 14.5083 14.9636 14.265C15.1929 14.0203 15.2683 13.846 15.4222 13.5661C15.5745 13.2877 15.4991 13.0444 15.3837 12.8349C15.2683 12.6253 14.3542 10.568 13.9741 9.73129C13.6017 8.91707 13.2247 9.02817 12.9446 9.0141C12.6783 9.00286 12.3736 9.00004 12.0674 9.00004C11.7627 9.00004 11.2672 9.1041 10.8486 9.52317C10.43 9.94082 9.24817 10.9519 9.24817 13.0093C9.24817 15.0652 10.8871 17.0522 11.1148 17.3321C11.3441 17.6105 14.3403 21.8321 18.9278 23.6419C20.0188 24.0722 20.8698 24.3295 21.5346 24.5208C22.6303 24.84 23.6275 24.795 24.4139 24.6867C25.2926 24.5672 27.1193 23.6756 27.5009 22.6997C27.8825 21.7238 27.8825 20.8871 27.7671 20.7127C27.6532 20.5383 27.3501 20.4342 26.8915 20.2247ZM18.5477 30.6352H18.5415C15.8173 30.6354 13.1432 29.9661 10.7994 28.6974L10.2438 28.3964L4.48686 29.7773L6.02266 24.6474L5.66103 24.1214C4.13821 21.9055 3.3326 19.3411 3.33731 16.7246C3.33885 9.06051 10.1638 2.82521 18.5538 2.82521C22.6165 2.82521 26.436 4.27364 29.3076 6.90051C30.7244 8.1895 31.8474 9.72247 32.6115 11.4107C33.3757 13.0989 33.7659 14.9089 33.7595 16.7358C33.7549 24.3999 26.9315 30.6352 18.5477 30.6352ZM31.4943 4.90505C29.7987 3.34541 27.7813 2.10878 25.559 1.26681C23.3366 0.424834 20.9535 -0.00573221 18.5477 5.76246e-05C8.46026 5.76246e-05 0.250302 7.50239 0.245686 16.7232C0.245686 19.6707 1.08746 22.5478 2.68944 25.0833L0.0917969 33.75L9.79447 31.4241C12.4777 32.7599 15.4844 33.46 18.54 33.4603H18.5477C28.6335 33.4603 36.845 25.958 36.8496 16.7358C36.8571 14.5382 36.3876 12.3611 35.4684 10.3304C34.5491 8.29968 33.1984 6.45568 31.4943 4.90505Z" fill="#25D366"/>
</svg>
